<svg width="41" height="40" viewBox="0 0 41 40" fill="none" xmlns="http://www.w3.org/2000/svg">
<path d="M20.5 36.6667C17.5556 36.6667 15.1528 36.2014 13.2917 35.2708C11.4306 34.3403 10.5 33.1389 10.5 31.6667C10.5 31 10.7014 30.3819 11.1042 29.8125C11.507 29.2431 12.0695 28.75 12.7917 28.3333L15.4167 30.7917C15.1667 30.9028 14.8959 31.0278 14.6042 31.1667C14.3125 31.3056 14.0834 31.4722 13.9167 31.6667C14.2778 32.1111 15.1112 32.5 16.4167 32.8333C17.7223 33.1667 19.0834 33.3333 20.5 33.3333C21.9167 33.3333 23.2848 33.1667 24.6042 32.8333C25.9237 32.5 26.7639 32.1111 27.125 31.6667C26.9306 31.4444 26.6806 31.2639 26.375 31.125C26.0695 30.9861 25.7778 30.8611 25.5 30.75L28.0834 28.25C28.8612 28.6944 29.4584 29.2014 29.875 29.7708C30.2917 30.3403 30.5 30.9722 30.5 31.6667C30.5 33.1389 29.5695 34.3403 27.7084 35.2708C25.8473 36.2014 23.4445 36.6667 20.5 36.6667ZM20.5417 27.5C23.2917 25.4722 25.3612 23.4375 26.75 21.3958C28.1389 19.3542 28.8334 17.3056 28.8334 15.25C28.8334 12.4167 27.9306 10.2778 26.125 8.83334C24.3195 7.38889 22.4445 6.66667 20.5 6.66667C18.5556 6.66667 16.6806 7.38889 14.875 8.83334C13.0695 10.2778 12.1667 12.4167 12.1667 15.25C12.1667 17.1111 12.8473 19.0486 14.2084 21.0625C15.5695 23.0764 17.6806 25.2222 20.5417 27.5ZM20.5 31.6667C16.5834 28.7778 13.6598 25.9722 11.7292 23.25C9.79865 20.5278 8.83337 17.8611 8.83337 15.25C8.83337 13.2778 9.18754 11.5486 9.89587 10.0625C10.6042 8.57639 11.5139 7.33334 12.625 6.33334C13.7362 5.33334 14.9862 4.58334 16.375 4.08334C17.7639 3.58334 19.1389 3.33334 20.5 3.33334C21.8612 3.33334 23.2362 3.58334 24.625 4.08334C26.0139 4.58334 27.2639 5.33334 28.375 6.33334C29.4862 7.33334 30.3959 8.57639 31.1042 10.0625C31.8125 11.5486 32.1667 13.2778 32.1667 15.25C32.1667 17.8611 31.2014 20.5278 29.2709 23.25C27.3403 25.9722 24.4167 28.7778 20.5 31.6667ZM20.5 18.3333C21.4167 18.3333 22.2014 18.0069 22.8542 17.3542C23.507 16.7014 23.8334 15.9167 23.8334 15C23.8334 14.0833 23.507 13.2986 22.8542 12.6458C22.2014 11.9931 21.4167 11.6667 20.5 11.6667C19.5834 11.6667 18.7987 11.9931 18.1459 12.6458C17.4931 13.2986 17.1667 14.0833 17.1667 15C17.1667 15.9167 17.4931 16.7014 18.1459 17.3542C18.7987 18.0069 19.5834 18.3333 20.5 18.3333Z" fill="white"/>
</svg>
